# xmcd CD database file
#
# Track frame offsets:
#	150
#	18133
#	30412
#	44851
#	59578
#	73514
#	81956
#	102808
#	128437
#	144858
#	167006
#	184329
#	204433
#	220256
#	241348
#	260002
#
# Disc length: 3746 seconds
#
# Revision: 0
# Processed by: cddbd v1.5.2PL0 Copyright (c) Steve Scherf et al.
# Submitted via: CDex 1.51
#
DISCID=df0ea010
DTITLE=Klazz Brothers and Cuba Percussion - Christmas meets Cuba
DYEAR=2010
DGENRE=Jazz
TTITLE0=Santa Claus
TTITLE1=Jingle Bells
TTITLE2=Joseph, lieber Joseph mein
TTITLE3=Kling, Glöckchen
TTITLE4=Let It Snow
TTITLE5=Morgen kommt der Weihnachtsmann
TTITLE6=O Tannenbaum
TTITLE7=Ave Maria
TTITLE8=Winter Wonderland
TTITLE9=Stille Nacht
TTITLE10=Feliz Navidad
TTITLE11=Se Siente La Navidad
TTITLE12=O Du Fröhliche
TTITLE13=Leise rieselt der Schnee
TTITLE14=Ihr Kinderlein kommet
TTITLE15=White Christmas
EXTD=YEAR: 2010
EXTT0=
EXTT1=
EXTT2=
EXTT3=
EXTT4=
EXTT5=
EXTT6=
EXTT7=
EXTT8=
EXTT9=
EXTT10=
EXTT11=
EXTT12=
EXTT13=
EXTT14=
EXTT15=
PLAYORDER=
